# xmcd
#
# Track frame offsets:
#	150
#	13540
#	26813
#	44940
#	54377
#	67324
#	86786
#	102752
#	115035
#	129641
#	141435
#
# Disc length: 2068 seconds
#
# Revision: 0
# Processed by: cddbd v1.4PL0 Copyright (c) Steve Scherf et al.
# Submitted via: EasyCDDAExtractor 4.6.9.1
#
DISCID=a408120b
DTITLE=Dave Evans - Just Look At Me Now
DYEAR=2002
DGENRE=Bluegrass
TTITLE0=It Ain't Half As Bad As It Seems
TTITLE1=Everything's Gonna Be Alright
TTITLE2=Hey Mama, Just Look At Me Now
TTITLE3=Buffalo Chips
TTITLE4=Next Sunday, Darling, Is My Birthday
TTITLE5=Here's Mud In Your Eye
TTITLE6=West Virginia
TTITLE7=My Home's Across The Blue Ridge Mountains
TTITLE8=I Still Miss Someone
TTITLE9=Doggin' The Blues
TTITLE10=The Old Crossroads
EXTD=
EXTT0=
EXTT1=
EXTT2=
EXTT3=
EXTT4=
EXTT5=
EXTT6=
EXTT7=
EXTT8=
EXTT9=
EXTT10=
PLAYORDER=
